{"accessors":[{"bufferView":0,"componentType":5125,"count":1920,"max":[1918.0],"min":[0.0],"type":"SCALAR"},{"bufferView":1,"componentType":5126,"count":1920,"max":[11.593231201171875,11.593231201171875,6.791218280792236],"min":[-11.593231201171875,-11.593231201171875,0.0],"type":"VEC3"},{"bufferView":2,"componentType":5126,"count":1920,"max":[1.0,1.0,1.0],"min":[-1.0,-1.0,-1.0],"type":"VEC3"},{"bufferView":3,"componentType":5126,"count":1920,"max":[1.0120351314544678,1.0],"min":[-0.012035246007144452,0.0],"type":"VEC2"},{"bufferView":4,"componentType":5125,"count":1536,"max":[1528.0],"min":[0.0],"type":"SCALAR"},{"bufferView":5,"componentType":5126,"count":1536,"max":[9.113958358764649,9.113959312438965,-6.2991204261779789],"min":[-9.113960266113282,-9.113959312438965,-13.298056602478028],"type":"VEC3"},{"bufferView":6,"componentType":5126,"count":1536,"max":[0.9747709035873413,0.9747709631919861,0.9329729080200195],"min":[-0.9747709035873413,-0.9747708439826965,-0.9056700468063355],"type":"VEC3"},{"bufferView":7,"componentType":5126,"count":1536,"max":[3.999999761581421,-0.13890624046325684],"min":[-2.384185791015625e-7,-1.9857814311981202],"type":"VEC2"},{"bufferView":8,"componentType":5125,"count":3828,"max":[3820.0],"min":[0.0],"type":"SCALAR"},{"bufferView":9,"componentType":5126,"count":3828,"max":[10.278632164001465,10.278633117675782,14.87609577178955],"min":[-10.278634071350098,-10.278633117675782,0.0],"type":"VEC3"},{"bufferView":10,"componentType":5126,"count":3828,"max":[0.999977707862854,0.999977707862854,1.0],"min":[-0.9999778270721436,-0.999977707862854,-1.0],"type":"VEC3"},{"bufferView":11,"componentType":5126,"count":3828,"max":[1.0120351314544678,1.0],"min":[-0.012034785002470017,0.0],"type":"VEC2"}],"asset":{"generator":"SimLab GLTF","version":"2.0"},"bufferViews":[{"buffer":0,"byteLength":7680,"target":34963},{"buffer":0,"byteLength":23040,"byteOffset":7680,"byteStride":12,"target":34962},{"buffer":0,"byteLength":23040,"byteOffset":30720,"byteStride":12,"target":34962},{"buffer":0,"byteLength":15360,"byteOffset":53760,"byteStride":8,"target":34962},{"buffer":0,"byteLength":6144,"byteOffset":69120,"target":34963},{"buffer":0,"byteLength":18432,"byteOffset":75264,"byteStride":12,"target":34962},{"buffer":0,"byteLength":18432,"byteOffset":93696,"byteStride":12,"target":34962},{"buffer":0,"byteLength":12288,"byteOffset":112128,"byteStride":8,"target":34962},{"buffer":0,"byteLength":15312,"byteOffset":124416,"target":34963},{"buffer":0,"byteLength":45936,"byteOffset":139728,"byteStride":12,"target":34962},{"buffer":0,"byteLength":45936,"byteOffset":185664,"byteStride":12,"target":34962},{"buffer":0,"byteLength":30624,"byteOffset":231600,"byteStride":8,"target":34962}],"buffers":[{"byteLength":262224,"uri":"Costa.bin"}],"images":[{"mimeType":"image/png","uri":"Textures/costa-cup-holder-grey.png"}],"materials":[{"name":"02 - Default","alphaMode":"MASK","doubleSided":true,"pbrMetallicRoughness":{"baseColorFactor":[0.8509804010391235,0.8705882430076599,0.929411768913269,1.0],"roughnessFactor":0.9854999780654907}},{"name":"03 - Default","alphaMode":"MASK","doubleSided":true,"pbrMetallicRoughness":{"baseColorFactor":[0.0117647061124444,0.0117647061124444,0.0117647061124444,1.0],"baseColorTexture":{"index":0},"roughnessFactor":0.9854999780654907}},{"name":"03 - Default","alphaMode":"MASK","doubleSided":true,"pbrMetallicRoughness":{"baseColorFactor":[0.19607843458652497,0.007843137718737126,0.0470588244497776,1.0],"roughnessFactor":0.9854999780654907}}],"meshes":[{"primitives":[{"attributes":{"NORMAL":2,"POSITION":1,"TEXCOORD_0":3},"indices":0,"material":0,"mode":4}]},{"primitives":[{"attributes":{"NORMAL":6,"POSITION":5,"TEXCOORD_0":7},"indices":4,"material":1,"mode":4}]},{"primitives":[{"attributes":{"NORMAL":10,"POSITION":9,"TEXCOORD_0":11},"indices":8,"material":2,"mode":4}]}],"nodes":[{"children":[1,2],"matrix":[1.0,0.0,0.0,0.0,0.0,4.4896593387466768e-11,-1.0,0.0,0.0,1.0,4.4896593387466768e-11,0.0,0.0,0.0,0.0,1.0]},{"name":"Camera-1","rotation":[-0.7071067690849304,0.0,0.0,-0.7071067690849304],"translation":[0.0,-2.849862575531006,-4.8074294767275208e-8]},{"name":"Costa-Cup","children":[3,7,11],"rotation":[-3.0616009187229139e-17,-9.950337826629073e-20,0.0032500268425792457,-0.999994695186615],"scale":[0.02539999969303608,0.02539999969303608,0.02539999969303608]},{"name":"Cylinder001","children":[4],"rotation":[-9.353941930054627e-33,-5.480825636627309e-35,0.0,-1.0],"scale":[0.8516799807548523,0.8516799807548523,0.6588640213012695],"translation":[0.0,0.0,9.550422668457032]},{"name":"Assembly-3","children":[6],"rotation":[0.0,0.0,0.0,-1.0]},{"mesh":0},{"children":[5]},{"name":"Cup Holder","children":[8],"rotation":[-3.772436143593225e-33,-2.9472157371822075e-35,2.5085172827843396e-10,-1.0],"scale":[0.9281600117683411,0.9281600117683411,1.6336859464645386],"translation":[-7.703719777548944e-34,0.0,13.886543273925782]},{"name":"Assembly-5","children":[10],"rotation":[0.0,0.0,0.0,-1.0]},{"mesh":1},{"children":[9]},{"name":"Cup","children":[12],"rotation":[-3.772436143593225e-33,-2.9472157371822075e-35,2.5085172827843396e-10,-1.0],"scale":[0.9281600117683411,0.9281600117683411,1.6336859464645386],"translation":[0.0,0.0,-14.02491569519043]},{"name":"Assembly-7","children":[14],"rotation":[0.0,0.0,0.0,-1.0]},{"mesh":2},{"children":[13]}],"samplers":[{"wrapS":10497,"wrapT":10497}],"scene":0,"scenes":[{"nodes":[0]}],"textures":[{"source":0}]}