{"accessors":[{"bufferView":0,"componentType":5125,"count":1920,"max":[1918.0],"min":[0.0],"type":"SCALAR"},{"bufferView":1,"componentType":5126,"count":1920,"max":[11.593231201171875,11.593231201171875,6.791218280792236],"min":[-11.593231201171875,-11.593231201171875,0.0],"type":"VEC3"},{"bufferView":2,"componentType":5126,"count":1920,"max":[1.0,1.0,1.0],"min":[-1.0,-1.0,-1.0],"type":"VEC3"},{"bufferView":3,"componentType":5126,"count":1920,"max":[1.0120351314544678,1.0],"min":[-0.012035246007144452,0.0],"type":"VEC2"},{"bufferView":4,"componentType":5125,"count":1536,"max":[1528.0],"min":[0.0],"type":"SCALAR"},{"bufferView":5,"componentType":5126,"count":1536,"max":[9.113958358764649,9.113959312438965,-6.2991204261779789],"min":[-9.113960266113282,-9.113959312438965,-13.298056602478028],"type":"VEC3"},{"bufferView":6,"componentType":5126,"count":1536,"max":[0.9747709035873413,0.9747709631919861,0.9329729080200195],"min":[-0.9747709035873413,-0.9747708439826965,-0.9056700468063355],"type":"VEC3"},{"bufferView":7,"componentType":5126,"count":1536,"max":[3.999999761581421,-0.13890624046325684],"min":[-2.384185791015625e-7,-1.9857814311981202],"type":"VEC2"},{"bufferView":8,"componentType":5125,"count":3828,"max":[3820.0],"min":[0.0],"type":"SCALAR"},{"bufferView":9,"componentType":5126,"count":3828,"max":[10.278632164001465,10.278633117675782,14.87609577178955],"min":[-10.278634071350098,-10.278633117675782,0.0],"type":"VEC3"},{"bufferView":10,"componentType":5126,"count":3828,"max":[0.999977707862854,0.999977707862854,1.0],"min":[-0.9999778270721436,-0.999977707862854,-1.0],"type":"VEC3"},{"bufferView":11,"componentType":5126,"count":3828,"max":[1.0120351314544678,1.0],"min":[-0.012034785002470017,0.0],"type":"VEC2"},{"bufferView":12,"componentType":5125,"count":1920,"max":[1918.0],"min":[0.0],"type":"SCALAR"},{"bufferView":13,"componentType":5126,"count":1920,"max":[11.593231201171875,11.593231201171875,6.791218280792236],"min":[-11.593231201171875,-11.593231201171875,0.0],"type":"VEC3"},{"bufferView":14,"componentType":5126,"count":1920,"max":[1.0,1.0,1.0],"min":[-1.0,-1.0,-1.0],"type":"VEC3"},{"bufferView":15,"componentType":5126,"count":1920,"max":[1.0120351314544678,1.0],"min":[-0.012035246007144452,0.0],"type":"VEC2"},{"bufferView":16,"componentType":5125,"count":1536,"max":[1528.0],"min":[0.0],"type":"SCALAR"},{"bufferView":17,"componentType":5126,"count":1536,"max":[9.113958358764649,9.113959312438965,-6.2991204261779789],"min":[-9.113960266113282,-9.113959312438965,-13.298056602478028],"type":"VEC3"},{"bufferView":18,"componentType":5126,"count":1536,"max":[0.9747709035873413,0.9747709631919861,0.9329729080200195],"min":[-0.9747709035873413,-0.9747708439826965,-0.9056700468063355],"type":"VEC3"},{"bufferView":19,"componentType":5126,"count":1536,"max":[3.999999761581421,-0.13890624046325684],"min":[-2.384185791015625e-7,-1.9857814311981202],"type":"VEC2"},{"bufferView":20,"componentType":5125,"count":3828,"max":[3820.0],"min":[0.0],"type":"SCALAR"},{"bufferView":21,"componentType":5126,"count":3828,"max":[10.278632164001465,10.278633117675782,14.87609577178955],"min":[-10.278634071350098,-10.278633117675782,0.0],"type":"VEC3"},{"bufferView":22,"componentType":5126,"count":3828,"max":[0.999977707862854,0.999977707862854,1.0],"min":[-0.9999778270721436,-0.999977707862854,-1.0],"type":"VEC3"},{"bufferView":23,"componentType":5126,"count":3828,"max":[1.0120351314544678,1.0],"min":[-0.012034785002470017,0.0],"type":"VEC2"},{"bufferView":24,"componentType":5126,"count":101,"max":[3.3333332538604738],"min":[0.0],"type":"SCALAR"},{"bufferView":25,"componentType":5126,"count":101,"max":[46.10867691040039,-75.55674743652344,2.1981468200683595],"min":[46.10867691040039,-75.55674743652344,2.1981468200683595],"type":"VEC3"},{"bufferView":26,"componentType":5126,"count":101,"max":[-0.66985023021698,-0.20131084322929383,-0.2056967169046402,-0.6844439506530762],"min":[-0.66985023021698,-0.20131084322929383,-0.2056967169046402,-0.6844439506530762],"type":"VEC4"},{"bufferView":27,"componentType":5126,"count":101,"max":[1.0,1.0,1.0],"min":[1.0,1.0,1.0],"type":"VEC3"}],"animations":[{"name":"Take 001","channels":[],"samplers":[{"input":24,"interpolation":"LINEAR","output":27},{"input":24,"interpolation":"LINEAR","output":25},{"input":24,"interpolation":"LINEAR","output":26}]}],"asset":{"generator":"SimLab GLTF","version":"2.0"},"bufferViews":[{"buffer":0,"byteLength":7680,"target":34963},{"buffer":0,"byteLength":23040,"byteOffset":7680,"byteStride":12,"target":34962},{"buffer":0,"byteLength":23040,"byteOffset":30720,"byteStride":12,"target":34962},{"buffer":0,"byteLength":15360,"byteOffset":53760,"byteStride":8,"target":34962},{"buffer":0,"byteLength":6144,"byteOffset":69120,"target":34963},{"buffer":0,"byteLength":18432,"byteOffset":75264,"byteStride":12,"target":34962},{"buffer":0,"byteLength":18432,"byteOffset":93696,"byteStride":12,"target":34962},{"buffer":0,"byteLength":12288,"byteOffset":112128,"byteStride":8,"target":34962},{"buffer":0,"byteLength":15312,"byteOffset":124416,"target":34963},{"buffer":0,"byteLength":45936,"byteOffset":139728,"byteStride":12,"target":34962},{"buffer":0,"byteLength":45936,"byteOffset":185664,"byteStride":12,"target":34962},{"buffer":0,"byteLength":30624,"byteOffset":231600,"byteStride":8,"target":34962},{"buffer":0,"byteLength":7680,"byteOffset":262224,"target":34963},{"buffer":0,"byteLength":23040,"byteOffset":269904,"byteStride":12,"target":34962},{"buffer":0,"byteLength":23040,"byteOffset":292944,"byteStride":12,"target":34962},{"buffer":0,"byteLength":15360,"byteOffset":315984,"byteStride":8,"target":34962},{"buffer":0,"byteLength":6144,"byteOffset":331344,"target":34963},{"buffer":0,"byteLength":18432,"byteOffset":337488,"byteStride":12,"target":34962},{"buffer":0,"byteLength":18432,"byteOffset":355920,"byteStride":12,"target":34962},{"buffer":0,"byteLength":12288,"byteOffset":374352,"byteStride":8,"target":34962},{"buffer":0,"byteLength":15312,"byteOffset":386640,"target":34963},{"buffer":0,"byteLength":45936,"byteOffset":401952,"byteStride":12,"target":34962},{"buffer":0,"byteLength":45936,"byteOffset":447888,"byteStride":12,"target":34962},{"buffer":0,"byteLength":30624,"byteOffset":493824,"byteStride":8,"target":34962},{"buffer":0,"byteLength":404,"byteOffset":524448,"byteStride":4},{"buffer":0,"byteLength":1212,"byteOffset":524852,"byteStride":12},{"buffer":0,"byteLength":1616,"byteOffset":526064,"byteStride":16},{"buffer":0,"byteLength":1212,"byteOffset":527680,"byteStride":12}],"buffers":[{"byteLength":528892,"uri":"Costa-Cup.bin"}],"images":[{"mimeType":"image/png","uri":"Textures/costa-cup-holder-grey.png"}],"materials":[{"name":"02 - Default","alphaMode":"MASK","doubleSided":true,"pbrMetallicRoughness":{"baseColorFactor":[0.8509804010391235,0.8705882430076599,0.929411768913269,1.0],"roughnessFactor":0.9854999780654907}},{"name":"03 - Default","alphaMode":"MASK","doubleSided":true,"pbrMetallicRoughness":{"baseColorFactor":[0.0117647061124444,0.0117647061124444,0.0117647061124444,1.0],"baseColorTexture":{"index":0},"roughnessFactor":0.9854999780654907}},{"name":"03 - Default","alphaMode":"MASK","doubleSided":true,"pbrMetallicRoughness":{"baseColorFactor":[0.19607843458652497,0.007843137718737126,0.0470588244497776,1.0],"roughnessFactor":0.9854999780654907}}],"meshes":[{"primitives":[{"attributes":{"NORMAL":2,"POSITION":1,"TEXCOORD_0":3},"indices":0,"material":0,"mode":4}]},{"primitives":[{"attributes":{"NORMAL":6,"POSITION":5,"TEXCOORD_0":7},"indices":4,"material":1,"mode":4}]},{"primitives":[{"attributes":{"NORMAL":10,"POSITION":9,"TEXCOORD_0":11},"indices":8,"material":2,"mode":4}]},{"primitives":[{"attributes":{"NORMAL":14,"POSITION":13,"TEXCOORD_0":15},"indices":12,"material":0,"mode":4}]},{"primitives":[{"attributes":{"NORMAL":18,"POSITION":17,"TEXCOORD_0":19},"indices":16,"material":1,"mode":4}]},{"primitives":[{"attributes":{"NORMAL":22,"POSITION":21,"TEXCOORD_0":23},"indices":20,"material":2,"mode":4}]}],"nodes":[{"children":[1,2],"matrix":[1.0,0.0,0.0,0.0,0.0,4.4896593387466768e-11,-1.0,0.0,0.0,1.0,4.4896593387466768e-11,0.0,0.0,0.0,0.0,1.0]},{"name":"Camera-1","rotation":[-0.7071067690849304,0.0,0.0,-0.7071067690849304],"translation":[-0.24303586781024934,-4.550022602081299,0.26889029145240786]},{"name":"Assembly-17","children":[3,16],"rotation":[0.0,0.0,0.0,-1.0],"scale":[0.02539999969303608,0.02539999969303608,0.02539999969303608]},{"name":"Costa-Cup","children":[4,8,12],"rotation":[-2.954704037290441e-17,-8.020118226187542e-18,0.26195693016052248,-0.9650795459747315],"translation":[-6.074114367038419e-8,-2.2377736286216533e-7,14.113457679748536]},{"name":"Cylinder001","children":[5],"rotation":[1.8090643164093996e-33,2.9783072413372204e-33,0.0,-1.0],"scale":[0.8516799807548523,0.8516799807548523,0.6588640213012695],"translation":[-1.3234889800848444e-23,2.6469779601696888e-23,9.550421714782715]},{"name":"Assembly-5","children":[7],"rotation":[0.0,0.0,0.0,-1.0]},{"mesh":0},{"children":[6]},{"name":"Cup Holder","children":[9],"rotation":[0.0,7.168892347621361e-34,2.9903869545547536e-17,-1.0],"scale":[0.9281600117683411,0.9281600117683411,1.6336859464645386],"translation":[0.0,0.0,13.886542320251465]},{"name":"Assembly-7","children":[11],"rotation":[0.0,0.0,0.0,-1.0]},{"mesh":1},{"children":[10]},{"name":"Cup","children":[13],"rotation":[0.0,7.168892347621361e-34,2.9903869545547536e-17,-1.0],"scale":[0.9281600117683411,0.9281600117683411,1.6336859464645386],"translation":[-1.3234889800848444e-23,2.6469779601696888e-23,-14.02491569519043]},{"name":"Assembly-9","children":[15],"rotation":[0.0,0.0,0.0,-1.0]},{"mesh":2},{"children":[14]},{"name":"Costa-Cup001","children":[17,21,25],"rotation":[0.1042119488120079,0.6331830024719238,-0.292546808719635,-0.708967924118042],"translation":[-16.141536712646486,8.470464706420899,8.43635082244873]},{"name":"Cylinder002","children":[18],"rotation":[-5.26580117382991e-18,-9.037899317831944e-9,1.6294602762541266e-17,-1.0],"scale":[0.8516799807548523,0.8516799807548523,0.6588640213012695],"translation":[0.0,9.5367431640625e-7,9.550422668457032]},{"name":"Assembly-12","children":[20],"rotation":[0.0,0.0,0.0,-1.0]},{"mesh":3},{"children":[19]},{"name":"Cup Holder001","children":[22],"rotation":[9.344819140721939e-9,-2.3923095636438028e-16,1.6054508833462934e-8,-1.0],"scale":[0.9281600117683411,0.9281600117683411,1.6336859464645386],"translation":[-1.7763568394002506e-15,4.76837158203125e-7,13.886545181274414]},{"name":"Assembly-14","children":[24],"rotation":[0.0,0.0,0.0,-1.0]},{"mesh":4},{"children":[23]},{"name":"Cup001","children":[26],"rotation":[9.344819140721939e-9,-2.3923095636438028e-16,1.6054508833462934e-8,-1.0],"scale":[0.9281600117683411,0.9281600117683411,1.6336859464645386],"translation":[-1.7763568394002506e-15,4.76837158203125e-7,-14.024914741516114]},{"name":"Assembly-16","children":[28],"rotation":[0.0,0.0,0.0,-1.0]},{"mesh":5},{"children":[27]}],"samplers":[{"wrapS":10497,"wrapT":10497}],"scene":0,"scenes":[{"nodes":[0]}],"textures":[{"source":0}]}