<svg width="2400" height="750" xmlns="http://www.w3.org/2000/svg" preserveAspectRatio="xMidYMid meet" version="1.0">
 <metadata>Created by potrace 1.16, written by Peter Selinger 2001-2019</metadata>

 <g>
  <title>Layer 1</title>
  <g id="svg_1" fill="#000000" transform="translate(0 750) scale(0.1 -0.1)">
   <path id="svg_2" d="m1,5573l0,-1928l252,-150c471,-281 572,-338 802,-456c127,-65 291,-144 365,-177c74,-33 160,-71 190,-85c56,-25 353,-143 445,-177c308,-114 681,-229 982,-305c262,-66 265,-67 658,-144c28,-6 111,-20 185,-31c74,-11 162,-25 195,-30c33,-5 98,-14 145,-19c47,-6 123,-15 170,-20c47,-6 139,-15 205,-20c66,-6 185,-16 265,-23c97,-9 336,-13 715,-12c682,0 832,8 1525,84c316,34 797,110 1205,189c55,10 147,28 205,39c106,21 222,45 295,62c22,5 112,25 200,44c88,20 340,81 560,137c220,56 425,107 455,114c30,7 125,29 210,49c505,117 868,172 1295,196c250,13 847,13 1005,-1c503,-44 768,-85 1240,-195c85,-20 180,-42 210,-49c30,-7 235,-58 455,-114c220,-56 472,-117 560,-137c88,-19 178,-39 200,-44c73,-17 189,-41 295,-62c58,-11 150,-29 205,-39c358,-70 633,-114 1045,-170c210,-28 610,-68 865,-86c315,-22 1305,-25 1535,-5c80,7 199,17 265,23c66,5 156,14 200,19c193,22 264,31 320,40c33,5 121,19 195,30c74,11 158,25 185,31c393,77 396,78 658,144c301,76 674,191 982,305c74,27 384,150 430,170c310,138 601,277 720,345c22,12 65,36 95,52c77,42 303,173 350,203c8,5 115,69 237,142l222,133l1,1928l0,1927l-12000,0l-12000,0l1,-1927z" fill="#890405"/>
   <path id="svg_3" d="m11385,2549c-562,-22 -1072,-70 -1695,-158c-190,-27 -430,-59 -535,-71c-277,-31 -502,-63 -890,-126c-226,-36 -691,-117 -800,-139c-38,-8 -207,-39 -375,-70c-168,-30 -352,-65 -410,-76c-58,-11 -127,-24 -155,-29c-27,-5 -113,-20 -190,-34c-427,-76 -932,-157 -1160,-185c-44,-6 -132,-17 -195,-25c-731,-94 -1535,-134 -2155,-106c-376,17 -740,54 -980,100c-27,6 -111,22 -185,36c-325,62 -666,153 -1045,279c-134,45 -265,91 -300,104c-11,5 -47,18 -80,31c-33,12 -71,26 -85,32c-30,13 -51,21 -107,42l-43,16l0,-1085l0,-1085l12000,0l12000,0l0,1085c0,597 -2,1085 -5,1085c-2,0 -19,-6 -37,-14c-18,-8 -82,-33 -143,-56c-60,-23 -119,-46 -130,-50c-11,-5 -40,-16 -65,-24c-25,-8 -85,-29 -135,-46c-700,-247 -1432,-400 -2100,-440c-723,-43 -1575,-7 -2400,100c-44,6 -116,15 -160,21c-233,29 -735,109 -1160,185c-77,14 -162,29 -190,34c-27,5 -97,18 -155,29c-58,11 -242,46 -410,76c-168,31 -336,62 -375,70c-376,75 -1243,213 -1605,256c-52,6 -189,26 -305,44c-691,110 -1258,167 -1950,195c-282,11 -1003,11 -1290,-1z" fill="#890405"/>
  </g>
 </g>
</svg>