<svg width="2400" height="750" xmlns="http://www.w3.org/2000/svg" preserveAspectRatio="xMidYMid meet" version="1.0">

 <g>
  <title>Layer 1</title>
  <g id="svg_1" fill="#000000" transform="translate(0 750) scale(0.1 -0.1)">
   <path fill="#660414" id="svg_2" d="m0,3759c0,-2989 3,-3739 12,-3733c86,52 361,269 513,405c130,116 395,382 517,519c251,282 571,723 823,1134c269,440 443,766 936,1751c395,787 430,856 584,1140c693,1275 1350,2001 2220,2457l130,68l-2867,0l-2868,0l0,-3741z"/>
   <path fill="#660414" id="svg_3" d="m11528,7491c-1,-5 -53,-34 -114,-64c-565,-283 -1073,-727 -1544,-1352c-86,-115 -334,-484 -414,-617c-283,-473 -376,-648 -914,-1723c-455,-907 -595,-1170 -850,-1595c-522,-869 -1095,-1532 -1744,-2018l-156,-117l3100,-3c2629,-2 3102,0 3112,12c6,7 45,38 86,67c232,165 473,374 716,621c201,205 279,292 440,494c352,441 678,951 1040,1628c74,138 306,593 515,1011c395,787 430,856 584,1140c693,1275 1350,2001 2220,2457l130,68l-3102,0c-1780,0 -3103,-4 -3105,-9z"/>
   <path fill="#660414" id="svg_4" d="m23528,7491c-1,-5 -53,-34 -114,-64c-565,-283 -1073,-727 -1544,-1352c-86,-115 -334,-484 -414,-617c-283,-473 -376,-648 -914,-1723c-368,-734 -480,-949 -649,-1250c-608,-1079 -1209,-1811 -1938,-2358c-88,-66 -162,-121 -164,-123c-2,-2 1394,-4 3102,-4l3107,0l0,3750l0,3750l-234,0c-129,0 -236,-4 -238,-9z"/>
  </g>
 </g>
</svg>