{"accessors":[{"bufferView":0,"componentType":5125,"count":10368,"max":[10333.0],"min":[0.0],"type":"SCALAR"},{"bufferView":1,"componentType":5126,"count":10368,"max":[2.615406036376953,0.6223919987678528,187.8179931640625],"min":[-2.615406036376953,-4.585010051727295,186.7838897705078],"type":"VEC3"},{"bufferView":2,"componentType":5126,"count":10368,"max":[1.0,1.0,1.0],"min":[-1.0,-1.0,-1.0],"type":"VEC3"},{"bufferView":3,"componentType":5126,"count":10368,"max":[0.9999999403953552,1.0],"min":[-0.08364272117614746,0.0],"type":"VEC2"},{"bufferView":4,"componentType":5125,"count":102528,"max":[102493.0],"min":[0.0],"type":"SCALAR"},{"bufferView":5,"componentType":5126,"count":102528,"max":[12.58965015411377,27.459959030151368,187.53897094726563],"min":[-12.58965015411377,-12.6607666015625,185.90023803710938],"type":"VEC3"},{"bufferView":6,"componentType":5126,"count":102528,"max":[0.9999998807907105,1.0,1.0],"min":[-1.0,-1.0,-1.0],"type":"VEC3"},{"bufferView":7,"componentType":5126,"count":102528,"max":[0.9802496433258057,0.8761172890663147],"min":[-0.019750356674194337,0.12388217449188233],"type":"VEC2"},{"bufferView":8,"componentType":5125,"count":96768,"max":[96732.0],"min":[0.0],"type":"SCALAR"},{"bufferView":9,"componentType":5126,"count":96768,"max":[45.7366943359375,45.7366943359375,192.11410522460938],"min":[-45.7366943359375,-45.7366943359375,182.57351684570313],"type":"VEC3"},{"bufferView":10,"componentType":5126,"count":96768,"max":[1.0,1.0,1.0],"min":[-1.0,-1.0,-1.0],"type":"VEC3"},{"bufferView":11,"componentType":5126,"count":96768,"max":[0.9026867151260376,0.9005404710769653],"min":[0.10726585984230042,0.10511958599090576],"type":"VEC2"},{"bufferView":12,"componentType":5125,"count":43776,"max":[43744.0],"min":[0.0],"type":"SCALAR"},{"bufferView":13,"componentType":5126,"count":43776,"max":[52.57665252685547,52.57665252685547,14.969757080078125],"min":[-52.57665252685547,-52.57665252685547,0.16937300562858582],"type":"VEC3"},{"bufferView":14,"componentType":5126,"count":43776,"max":[0.9997621774673462,0.9997621178627014,-0.021805299445986749],"min":[-0.9997621774673462,-0.9997621774673462,-1.0],"type":"VEC3"},{"bufferView":15,"componentType":5126,"count":43776,"max":[1.018110990524292,1.0777579545974732],"min":[0.0,0.9921020269393921],"type":"VEC2"},{"bufferView":16,"componentType":5125,"count":28800,"max":[28765.0],"min":[0.0],"type":"SCALAR"},{"bufferView":17,"componentType":5126,"count":28800,"max":[52.582176208496097,52.582176208496097,190.12074279785157],"min":[-52.582176208496097,-52.582176208496097,14.969741821289063],"type":"VEC3"},{"bufferView":18,"componentType":5126,"count":28800,"max":[1.0,1.0,0.4947051405906677],"min":[-1.0,-1.0,-0.021810218691825868],"type":"VEC3"},{"bufferView":19,"componentType":5126,"count":28800,"max":[1.0104130506515504,0.9921029806137085],"min":[0.0,-0.021563053131103517],"type":"VEC2"},{"bufferView":20,"componentType":5126,"count":101,"max":[3.3333332538604738],"min":[0.0],"type":"SCALAR"},{"bufferView":21,"componentType":5126,"count":101,"max":[-7.5641021728515629,6.112510681152344,4.5039286613464359],"min":[-7.5641021728515629,6.112510681152344,4.5039286613464359],"type":"VEC3"},{"bufferView":22,"componentType":5126,"count":101,"max":[-0.027923952788114549,0.0,0.0,-0.9996100664138794],"min":[-0.027923952788114549,0.0,0.0,-0.9996100664138794],"type":"VEC4"},{"bufferView":23,"componentType":5126,"count":101,"max":[1.0,0.9999182224273682,0.973469614982605],"min":[1.0,0.9999182224273682,0.973469614982605],"type":"VEC3"},{"bufferView":24,"componentType":5126,"count":101,"max":[-7.5641021728515629,6.112510681152344,4.5039286613464359],"min":[-7.5641021728515629,6.112510681152344,4.5039286613464359],"type":"VEC3"},{"bufferView":25,"componentType":5126,"count":101,"max":[-0.027923952788114549,0.0,0.0,-0.9996100664138794],"min":[-0.027923952788114549,0.0,0.0,-0.9996100664138794],"type":"VEC4"},{"bufferView":26,"componentType":5126,"count":101,"max":[1.0,0.9999182224273682,0.973469614982605],"min":[1.0,0.9999182224273682,0.973469614982605],"type":"VEC3"},{"bufferView":27,"componentType":5126,"count":101,"max":[-7.5641021728515629,-4.3280029296875,4.3674163818359379],"min":[-7.5641021728515629,-4.3280029296875,4.3674163818359379],"type":"VEC3"},{"bufferView":28,"componentType":5126,"count":101,"max":[-3.062730516567416e-17,0.0,0.0,-1.0],"min":[-3.062730516567416e-17,0.0,0.0,-1.0],"type":"VEC4"},{"bufferView":29,"componentType":5126,"count":101,"max":[1.0,1.0,0.9733899831771851],"min":[1.0,1.0,0.9733899831771851],"type":"VEC3"},{"bufferView":30,"componentType":5126,"count":101,"max":[-7.5641021728515629,-4.3280029296875,4.3674163818359379],"min":[-7.5641021728515629,-4.3280029296875,4.3674163818359379],"type":"VEC3"},{"bufferView":31,"componentType":5126,"count":101,"max":[-3.062730516567416e-17,0.0,0.0,-1.0],"min":[-3.062730516567416e-17,0.0,0.0,-1.0],"type":"VEC4"},{"bufferView":32,"componentType":5126,"count":101,"max":[1.0,1.0,0.9733899831771851],"min":[1.0,1.0,0.9733899831771851],"type":"VEC3"}],"animations":[{"name":"Take 001","channels":[{"sampler":0,"target":{"node":3,"path":"scale"}},{"sampler":1,"target":{"node":3,"path":"translation"}},{"sampler":2,"target":{"node":3,"path":"rotation"}},{"sampler":3,"target":{"node":7,"path":"scale"}},{"sampler":4,"target":{"node":7,"path":"translation"}},{"sampler":5,"target":{"node":7,"path":"rotation"}},{"sampler":6,"target":{"node":11,"path":"scale"}},{"sampler":7,"target":{"node":11,"path":"translation"}},{"sampler":8,"target":{"node":11,"path":"rotation"}},{"sampler":9,"target":{"node":15,"path":"scale"}},{"sampler":10,"target":{"node":15,"path":"translation"}},{"sampler":11,"target":{"node":15,"path":"rotation"}}],"samplers":[{"input":20,"interpolation":"LINEAR","output":23},{"input":20,"interpolation":"LINEAR","output":21},{"input":20,"interpolation":"LINEAR","output":22},{"input":20,"interpolation":"LINEAR","output":26},{"input":20,"interpolation":"LINEAR","output":24},{"input":20,"interpolation":"LINEAR","output":25},{"input":20,"interpolation":"LINEAR","output":29},{"input":20,"interpolation":"LINEAR","output":27},{"input":20,"interpolation":"LINEAR","output":28},{"input":20,"interpolation":"LINEAR","output":32},{"input":20,"interpolation":"LINEAR","output":30},{"input":20,"interpolation":"LINEAR","output":31}]}],"asset":{"generator":"SimLab GLTF","version":"2.0"},"bufferViews":[{"buffer":0,"byteLength":41472,"target":34963},{"buffer":0,"byteLength":124416,"byteOffset":41472,"byteStride":12,"target":34962},{"buffer":0,"byteLength":124416,"byteOffset":165888,"byteStride":12,"target":34962},{"buffer":0,"byteLength":82944,"byteOffset":290304,"byteStride":8,"target":34962},{"buffer":0,"byteLength":410112,"byteOffset":373248,"target":34963},{"buffer":0,"byteLength":1230336,"byteOffset":783360,"byteStride":12,"target":34962},{"buffer":0,"byteLength":1230336,"byteOffset":2013696,"byteStride":12,"target":34962},{"buffer":0,"byteLength":820224,"byteOffset":3244032,"byteStride":8,"target":34962},{"buffer":0,"byteLength":387072,"byteOffset":4064256,"target":34963},{"buffer":0,"byteLength":1161216,"byteOffset":4451328,"byteStride":12,"target":34962},{"buffer":0,"byteLength":1161216,"byteOffset":5612544,"byteStride":12,"target":34962},{"buffer":0,"byteLength":774144,"byteOffset":6773760,"byteStride":8,"target":34962},{"buffer":0,"byteLength":175104,"byteOffset":7547904,"target":34963},{"buffer":0,"byteLength":525312,"byteOffset":7723008,"byteStride":12,"target":34962},{"buffer":0,"byteLength":525312,"byteOffset":8248320,"byteStride":12,"target":34962},{"buffer":0,"byteLength":350208,"byteOffset":8773632,"byteStride":8,"target":34962},{"buffer":0,"byteLength":115200,"byteOffset":9123840,"target":34963},{"buffer":0,"byteLength":345600,"byteOffset":9239040,"byteStride":12,"target":34962},{"buffer":0,"byteLength":345600,"byteOffset":9584640,"byteStride":12,"target":34962},{"buffer":0,"byteLength":230400,"byteOffset":9930240,"byteStride":8,"target":34962},{"buffer":0,"byteLength":404,"byteOffset":10160640,"byteStride":4},{"buffer":0,"byteLength":1212,"byteOffset":10161044,"byteStride":12},{"buffer":0,"byteLength":1616,"byteOffset":10162256,"byteStride":16},{"buffer":0,"byteLength":1212,"byteOffset":10163872,"byteStride":12},{"buffer":0,"byteLength":1212,"byteOffset":10165084,"byteStride":12},{"buffer":0,"byteLength":1616,"byteOffset":10166296,"byteStride":16},{"buffer":0,"byteLength":1212,"byteOffset":10167912,"byteStride":12},{"buffer":0,"byteLength":1212,"byteOffset":10169124,"byteStride":12},{"buffer":0,"byteLength":1616,"byteOffset":10170336,"byteStride":16},{"buffer":0,"byteLength":1212,"byteOffset":10171952,"byteStride":12},{"buffer":0,"byteLength":1212,"byteOffset":10173164,"byteStride":12},{"buffer":0,"byteLength":1616,"byteOffset":10174376,"byteStride":16},{"buffer":0,"byteLength":1212,"byteOffset":10175992,"byteStride":12}],"buffers":[{"byteLength":10177204,"uri":"Sprite-Can.bin"}],"images":[{"mimeType":"image/jpeg","uri":"Textures/360_F_222191256_pHmKloI7pz2rjbQ0Ek3UmS82D8zwbiNG.jpg"},{"mimeType":"image/png","uri":"Textures/Sprite-can-map.png"}],"materials":[{"name":"Material #113","alphaMode":"MASK","doubleSided":true,"pbrMetallicRoughness":{"baseColorFactor":[0.32549020648002627,0.3529411852359772,0.3529411852359772,1.0],"roughnessFactor":0.9854999780654907}},{"name":"Material #112","alphaMode":"MASK","doubleSided":true,"pbrMetallicRoughness":{"baseColorFactor":[0.32549020648002627,0.3529411852359772,0.3529411852359772,1.0],"roughnessFactor":0.9854999780654907}},{"name":"Material #109","alphaMode":"MASK","doubleSided":true,"pbrMetallicRoughness":{"baseColorFactor":[0.5,0.5,0.5,1.0],"baseColorTexture":{"index":0},"roughnessFactor":0.9854999780654907}},{"name":"Material #116","alphaMode":"MASK","doubleSided":true,"pbrMetallicRoughness":{"baseColorFactor":[0.32549020648002627,0.3529411852359772,0.3529411852359772,1.0],"roughnessFactor":0.9854999780654907}},{"name":"Material #92","alphaMode":"MASK","doubleSided":true,"pbrMetallicRoughness":{"baseColorFactor":[0.5,0.5,0.5,1.0],"baseColorTexture":{"index":1},"roughnessFactor":0.9854999780654907}}],"meshes":[{"primitives":[{"attributes":{"NORMAL":2,"POSITION":1,"TEXCOORD_0":3},"indices":0,"material":0,"mode":4}]},{"primitives":[{"attributes":{"NORMAL":6,"POSITION":5,"TEXCOORD_0":7},"indices":4,"material":1,"mode":4}]},{"primitives":[{"attributes":{"NORMAL":10,"POSITION":9,"TEXCOORD_0":11},"indices":8,"material":2,"mode":4}]},{"primitives":[{"attributes":{"NORMAL":14,"POSITION":13,"TEXCOORD_0":15},"indices":12,"material":3,"mode":4}]},{"primitives":[{"attributes":{"NORMAL":18,"POSITION":17,"TEXCOORD_0":19},"indices":16,"material":4,"mode":4}]}],"nodes":[{"children":[1,2],"matrix":[1.0,0.0,0.0,0.0,0.0,4.4896593387466768e-11,-1.0,0.0,0.0,1.0,4.4896593387466768e-11,0.0,0.0,0.0,0.0,1.0]},{"name":"Camera-1","rotation":[-0.7071067690849304,0.0,0.0,-0.7071067690849304],"translation":[-0.19212819635868073,-19.092578887939454,2.4879510402679445]},{"name":"Assembly-9","children":[3,7,11,15],"rotation":[0.0,0.0,0.0,-1.0],"scale":[0.02539999969303608,0.02539999969303608,0.02539999969303608]},{"name":"Can_Cap_Holder","children":[4],"rotation":[-0.027923952788114549,0.0,0.0,-0.9996100664138794],"scale":[1.0,0.9999182224273682,0.973469614982605],"translation":[-7.5641021728515629,6.112510681152344,4.5039286613464359]},{"name":"Assembly-2","children":[6],"rotation":[0.0,0.0,0.0,-1.0]},{"mesh":0},{"children":[5]},{"name":"Can_Cap","children":[8],"rotation":[-0.027923952788114549,0.0,0.0,-0.9996100664138794],"scale":[1.0,0.9999182224273682,0.973469614982605],"translation":[-7.5641021728515629,6.112510681152344,4.5039286613464359]},{"name":"Assembly-4","children":[10],"rotation":[0.0,0.0,0.0,-1.0]},{"mesh":1},{"children":[9]},{"name":"Can_Top","children":[12],"rotation":[-3.062730516567416e-17,0.0,0.0,-1.0],"scale":[1.0,1.0,0.9733899831771851],"translation":[-7.5641021728515629,-4.3280029296875,4.3674163818359379]},{"name":"Assembly-6","children":[14],"rotation":[0.0,0.0,0.0,-1.0]},{"mesh":2},{"children":[13]},{"name":"Can_Body","children":[16],"rotation":[-3.062730516567416e-17,0.0,0.0,-1.0],"scale":[1.0,1.0,0.9733899831771851],"translation":[-7.5641021728515629,-4.3280029296875,4.3674163818359379]},{"name":"Assembly-8","children":[17,20],"rotation":[0.0,0.0,0.0,-1.0]},{"name":"Can_Body","children":[19],"rotation":[0.0,0.0,0.0,-1.0]},{"mesh":3},{"children":[18]},{"name":"Can_Body","children":[22],"rotation":[0.0,0.0,0.0,-1.0]},{"mesh":4},{"children":[21]}],"samplers":[{"wrapS":10497,"wrapT":10497}],"scene":0,"scenes":[{"nodes":[0]}],"textures":[{"source":0},{"source":1}]}