{"accessors":[{"bufferView":0,"componentType":5125,"count":96,"max":[62.0],"min":[0.0],"type":"SCALAR"},{"bufferView":1,"componentType":5126,"count":64,"max":[16.5,50.0,0.0],"min":[-16.5,-50.0,0.0],"type":"VEC3"},{"bufferView":2,"componentType":5126,"count":64,"max":[0.0,0.0,1.0],"min":[0.0,0.0,1.0],"type":"VEC3"},{"bufferView":3,"componentType":5126,"count":64,"max":[1.0,1.0],"min":[0.0,0.0],"type":"VEC2"},{"bufferView":4,"componentType":5125,"count":4152,"max":[4151.0],"min":[0.0],"type":"SCALAR"},{"bufferView":5,"componentType":5126,"count":4152,"max":[16.922842025756837,16.750591278076173,50.06304931640625],"min":[-16.9228458404541,-16.75059700012207,-36.1119499206543],"type":"VEC3"},{"bufferView":6,"componentType":5126,"count":4152,"max":[0.9898215532302856,1.0,0.9796924591064453],"min":[-0.9898215532302856,-1.0,-1.0],"type":"VEC3"},{"bufferView":7,"componentType":5126,"count":4152,"max":[0.9840614795684815,1.0],"min":[-0.02272731065750122,0.0],"type":"VEC2"},{"bufferView":8,"componentType":5125,"count":792,"max":[791.0],"min":[0.0],"type":"SCALAR"},{"bufferView":9,"componentType":5126,"count":792,"max":[16.763734817504884,16.593103408813478,20.741256713867189],"min":[-16.763734817504884,-16.593107223510743,-0.5991544723510742],"type":"VEC3"},{"bufferView":10,"componentType":5126,"count":792,"max":[1.0,0.9898215532302856,4.5511578150581047e-7],"min":[-1.0,-0.9898215532302856,-0.25649815797805788],"type":"VEC3"},{"bufferView":11,"componentType":5126,"count":792,"max":[0.9840614795684815,1.0],"min":[-0.02272731065750122,0.0],"type":"VEC2"},{"bufferView":12,"componentType":5125,"count":3588,"max":[3587.0],"min":[0.0],"type":"SCALAR"},{"bufferView":13,"componentType":5126,"count":3588,"max":[6.0,6.0,6.568359375],"min":[-6.0,-6.0,-0.3846435546875],"type":"VEC3"},{"bufferView":14,"componentType":5126,"count":3588,"max":[0.9969174861907959,0.9969174265861511,1.0],"min":[-0.9969174265861511,-0.9969174861907959,-1.0],"type":"VEC3"},{"bufferView":15,"componentType":5126,"count":3588,"max":[0.9895846843719482,1.0],"min":[-0.025000035762786866,0.0],"type":"VEC2"},{"bufferView":16,"componentType":5125,"count":4080,"max":[4079.0],"min":[0.0],"type":"SCALAR"},{"bufferView":17,"componentType":5126,"count":4080,"max":[16.922842025756837,16.750591278076173,33.842132568359378],"min":[-16.9228458404541,-16.75059700012207,-36.1119499206543],"type":"VEC3"},{"bufferView":18,"componentType":5126,"count":4080,"max":[1.0,1.0,1.0],"min":[-1.0,-1.0,-1.0],"type":"VEC3"},{"bufferView":19,"componentType":5126,"count":4080,"max":[0.9840614795684815,1.0],"min":[-0.02272731065750122,0.0],"type":"VEC2"},{"bufferView":20,"componentType":5125,"count":4944,"max":[4943.0],"min":[0.0],"type":"SCALAR"},{"bufferView":21,"componentType":5126,"count":4944,"max":[16.922842025756837,16.750591278076173,50.06304931640625],"min":[-16.9228458404541,-16.75059700012207,-36.1119499206543],"type":"VEC3"},{"bufferView":22,"componentType":5126,"count":4944,"max":[1.0,1.0,0.9796924591064453],"min":[-1.0,-1.0,-1.0],"type":"VEC3"},{"bufferView":23,"componentType":5126,"count":4944,"max":[0.9840614795684815,1.0],"min":[-0.02272731065750122,0.0],"type":"VEC2"},{"bufferView":24,"componentType":5125,"count":3588,"max":[3587.0],"min":[0.0],"type":"SCALAR"},{"bufferView":25,"componentType":5126,"count":3588,"max":[6.0,6.0,6.568359375],"min":[-6.0,-6.0,-0.3846435546875],"type":"VEC3"},{"bufferView":26,"componentType":5126,"count":3588,"max":[0.9969174861907959,0.9969174265861511,1.0],"min":[-0.9969174265861511,-0.9969174861907959,-1.0],"type":"VEC3"},{"bufferView":27,"componentType":5126,"count":3588,"max":[0.9895846843719482,1.0],"min":[-0.025000035762786866,0.0],"type":"VEC2"},{"bufferView":28,"componentType":5126,"count":101,"max":[3.3333332538604738],"min":[0.0],"type":"SCALAR"},{"bufferView":29,"componentType":5126,"count":101,"max":[70.80723571777344,-117.11648559570313,9.137439727783204],"min":[70.80723571777344,-117.11648559570313,9.137439727783204],"type":"VEC3"},{"bufferView":30,"componentType":5126,"count":101,"max":[-0.674763023853302,-0.18171752989292146,-0.18601083755493165,-0.6907051801681519],"min":[-0.674763023853302,-0.18171752989292146,-0.18601083755493165,-0.6907051801681519],"type":"VEC4"},{"bufferView":31,"componentType":5126,"count":101,"max":[1.0,1.0,1.0],"min":[1.0,1.0,1.0],"type":"VEC3"}],"animations":[{"name":"Take 001","channels":[],"samplers":[{"input":28,"interpolation":"LINEAR","output":31},{"input":28,"interpolation":"LINEAR","output":29},{"input":28,"interpolation":"LINEAR","output":30}]}],"asset":{"generator":"SimLab GLTF","version":"2.0"},"bufferViews":[{"buffer":0,"byteLength":384,"target":34963},{"buffer":0,"byteLength":768,"byteOffset":384,"byteStride":12,"target":34962},{"buffer":0,"byteLength":768,"byteOffset":1152,"byteStride":12,"target":34962},{"buffer":0,"byteLength":512,"byteOffset":1920,"byteStride":8,"target":34962},{"buffer":0,"byteLength":16608,"byteOffset":2432,"target":34963},{"buffer":0,"byteLength":49824,"byteOffset":19040,"byteStride":12,"target":34962},{"buffer":0,"byteLength":49824,"byteOffset":68864,"byteStride":12,"target":34962},{"buffer":0,"byteLength":33216,"byteOffset":118688,"byteStride":8,"target":34962},{"buffer":0,"byteLength":3168,"byteOffset":151904,"target":34963},{"buffer":0,"byteLength":9504,"byteOffset":155072,"byteStride":12,"target":34962},{"buffer":0,"byteLength":9504,"byteOffset":164576,"byteStride":12,"target":34962},{"buffer":0,"byteLength":6336,"byteOffset":174080,"byteStride":8,"target":34962},{"buffer":0,"byteLength":14352,"byteOffset":180416,"target":34963},{"buffer":0,"byteLength":43056,"byteOffset":194768,"byteStride":12,"target":34962},{"buffer":0,"byteLength":43056,"byteOffset":237824,"byteStride":12,"target":34962},{"buffer":0,"byteLength":28704,"byteOffset":280880,"byteStride":8,"target":34962},{"buffer":0,"byteLength":16320,"byteOffset":309584,"target":34963},{"buffer":0,"byteLength":48960,"byteOffset":325904,"byteStride":12,"target":34962},{"buffer":0,"byteLength":48960,"byteOffset":374864,"byteStride":12,"target":34962},{"buffer":0,"byteLength":32640,"byteOffset":423824,"byteStride":8,"target":34962},{"buffer":0,"byteLength":19776,"byteOffset":456464,"target":34963},{"buffer":0,"byteLength":59328,"byteOffset":476240,"byteStride":12,"target":34962},{"buffer":0,"byteLength":59328,"byteOffset":535568,"byteStride":12,"target":34962},{"buffer":0,"byteLength":39552,"byteOffset":594896,"byteStride":8,"target":34962},{"buffer":0,"byteLength":14352,"byteOffset":634448,"target":34963},{"buffer":0,"byteLength":43056,"byteOffset":648800,"byteStride":12,"target":34962},{"buffer":0,"byteLength":43056,"byteOffset":691856,"byteStride":12,"target":34962},{"buffer":0,"byteLength":28704,"byteOffset":734912,"byteStride":8,"target":34962},{"buffer":0,"byteLength":404,"byteOffset":763616,"byteStride":4},{"buffer":0,"byteLength":1212,"byteOffset":764020,"byteStride":12},{"buffer":0,"byteLength":1616,"byteOffset":765232,"byteStride":16},{"buffer":0,"byteLength":1212,"byteOffset":766848,"byteStride":12}],"buffers":[{"byteLength":768060,"uri":"Coke-Bottle.bin"}],"images":[{"mimeType":"image/png","uri":"Textures/cola-bottle.png"},{"mimeType":"image/png","uri":"Textures/Coke-Bottle.png"}],"materials":[{"name":"01 - Default","alphaMode":"MASK","doubleSided":true,"pbrMetallicRoughness":{"baseColorFactor":[0.5,0.5,0.5,1.0],"baseColorTexture":{"index":0},"roughnessFactor":0.9854999780654907}},{"name":"03 - Default","alphaMode":"MASK","doubleSided":true,"pbrMetallicRoughness":{"roughnessFactor":0.9854999780654907}},{"name":"02 - Default","alphaMode":"MASK","doubleSided":true,"pbrMetallicRoughness":{"baseColorFactor":[0.5,0.5,0.5,1.0],"baseColorTexture":{"index":1},"roughnessFactor":0.9854999780654907}},{"name":"07 - Default","alphaMode":"MASK","doubleSided":true,"pbrMetallicRoughness":{"baseColorFactor":[0.48235294222831728,0.0117647061124444,0.007843137718737126,1.0],"roughnessFactor":0.9854999780654907}},{"name":"08 - Default","alphaMode":"MASK","doubleSided":true,"pbrMetallicRoughness":{"baseColorFactor":[0.0,0.0,0.0,1.0],"roughnessFactor":0.9854999780654907}}],"meshes":[{"primitives":[{"attributes":{"NORMAL":2,"POSITION":1,"TEXCOORD_0":3},"indices":0,"material":0,"mode":4}]},{"primitives":[{"attributes":{"NORMAL":6,"POSITION":5,"TEXCOORD_0":7},"indices":4,"material":1,"mode":4}]},{"primitives":[{"attributes":{"NORMAL":10,"POSITION":9,"TEXCOORD_0":11},"indices":8,"material":2,"mode":4}]},{"primitives":[{"attributes":{"NORMAL":14,"POSITION":13,"TEXCOORD_0":15},"indices":12,"material":3,"mode":4}]},{"primitives":[{"attributes":{"NORMAL":18,"POSITION":17,"TEXCOORD_0":19},"indices":16,"material":4,"mode":4}]},{"primitives":[{"attributes":{"NORMAL":22,"POSITION":21,"TEXCOORD_0":23},"indices":20,"material":1,"mode":4}]},{"primitives":[{"attributes":{"NORMAL":26,"POSITION":25,"TEXCOORD_0":27},"indices":24,"material":3,"mode":4}]}],"nodes":[{"children":[1,2],"matrix":[1.0,0.0,0.0,0.0,0.0,4.4896593387466768e-11,-1.0,0.0,0.0,1.0,4.4896593387466768e-11,0.0,0.0,0.0,0.0,1.0]},{"name":"Camera-1","rotation":[-0.7071067690849304,0.0,0.0,-0.7071067690849304],"translation":[-0.005997840315103531,-10.514505386352539,1.2256897687911988]},{"name":"Assembly-17","children":[3,7,20],"rotation":[0.0,0.0,0.0,-1.0],"scale":[0.02539999969303608,0.02539999969303608,0.02539999969303608]},{"name":"Plane001","children":[4],"rotation":[-0.7071068286895752,0.0,0.0,-0.7071067094802856],"translation":[0.0,-0.000002185569428547751,50.0]},{"name":"Assembly-2","children":[6],"rotation":[0.0,0.0,0.0,-1.0]},{"mesh":0},{"children":[5]},{"name":"Coke-Bottle002","children":[8,16],"rotation":[-5.9377839534136e-8,5.194886298909296e-9,0.08715572953224182,-0.9961947202682495],"translation":[-0.23613455891609193,-0.0009139478206634522,46.61298751831055]},{"name":"Bottle002","children":[9],"rotation":[-5.999532959322096e-8,-9.449307918364659e-16,-7.450580596923828e-9,-1.0],"scale":[1.0,1.0,1.1212400197982789],"translation":[9.387731552124023e-7,0.0000039227306842803959,-9.61181640625]},{"name":"Assembly-7","children":[10,13],"rotation":[0.0,0.0,0.0,-1.0]},{"name":"Bottle002","children":[12],"rotation":[0.0,0.0,0.0,-1.0]},{"mesh":1},{"children":[11]},{"name":"Bottle002","children":[15],"rotation":[0.0,0.0,0.0,-1.0]},{"mesh":2},{"children":[14]},{"name":"Cap002","children":[17],"rotation":[7.105427357601002e-15,-4.44089315729181e-16,-7.450580596923828e-9,-1.0],"translation":[-0.01651836931705475,0.009458541870117188,43.514312744140628]},{"name":"Assembly-9","children":[19],"rotation":[0.0,0.0,0.0,-1.0]},{"mesh":3},{"children":[18]},{"name":"Coke-Bottle","children":[21,29],"rotation":[-3.0616171314629199e-17,0.0,0.0,-1.0],"translation":[-0.00006771087646484375,-0.053302764892578128,46.77410125732422]},{"name":"Bottle","children":[22,26],"rotation":[-5.971492100798059e-8,5.824716708957567e-9,0.08715572953224182,-0.9961947202682495],"scale":[0.981016993522644,0.981016993522644,1.0999560356140137],"translation":[-1.4012039173394442e-7,-0.05329853296279907,-9.429351806640625]},{"name":"Drinks","children":[23],"rotation":[-1.3234889800848444e-23,-3.9606964152079547e-16,-6.938867434127627e-18,-1.0],"translation":[-0.018865585327148439,0.10701370239257813,-0.0000152587890625]},{"name":"Assembly-14","children":[25],"rotation":[0.0,0.0,0.0,-1.0]},{"mesh":4},{"children":[24]},{"name":"Assembly-12","children":[28],"rotation":[0.0,0.0,0.0,-1.0]},{"mesh":5},{"children":[27]},{"name":"Cap","children":[30],"rotation":[0.0,3.941392609866301e-34,0.08715572953224182,-0.9961947202682495],"scale":[0.981016993522644,0.981016993522644,0.981016993522644],"translation":[-0.01434905081987381,-0.04135020077228546,42.68829345703125]},{"name":"Assembly-16","children":[32],"rotation":[0.0,0.0,0.0,-1.0]},{"mesh":6},{"children":[31]}],"samplers":[{"wrapS":10497,"wrapT":10497}],"scene":0,"scenes":[{"nodes":[0]}],"textures":[{"source":0},{"source":1}]}