{"accessors":[{"bufferView":0,"componentType":5125,"count":3588,"max":[3587.0],"min":[0.0],"type":"SCALAR"},{"bufferView":1,"componentType":5126,"count":3588,"max":[6.0,6.0,6.568359375],"min":[-6.0,-6.0,-0.3846435546875],"type":"VEC3"},{"bufferView":2,"componentType":5126,"count":3588,"max":[0.9969174861907959,0.9969174265861511,1.0],"min":[-0.9969174265861511,-0.9969174861907959,-1.0],"type":"VEC3"},{"bufferView":3,"componentType":5126,"count":3588,"max":[0.9895846843719482,1.0],"min":[-0.025000035762786866,0.0],"type":"VEC2"},{"bufferView":4,"componentType":5125,"count":4080,"max":[4079.0],"min":[0.0],"type":"SCALAR"},{"bufferView":5,"componentType":5126,"count":4080,"max":[16.922842025756837,16.750591278076173,33.842132568359378],"min":[-16.9228458404541,-16.75059700012207,-36.1119499206543],"type":"VEC3"},{"bufferView":6,"componentType":5126,"count":4080,"max":[1.0,1.0,1.0],"min":[-1.0,-1.0,-1.0],"type":"VEC3"},{"bufferView":7,"componentType":5126,"count":4080,"max":[0.9840614795684815,1.0],"min":[-0.02272731065750122,0.0],"type":"VEC2"},{"bufferView":8,"componentType":5125,"count":4152,"max":[4151.0],"min":[0.0],"type":"SCALAR"},{"bufferView":9,"componentType":5126,"count":4152,"max":[16.922842025756837,16.750591278076173,50.06304931640625],"min":[-16.9228458404541,-16.75059700012207,-36.1119499206543],"type":"VEC3"},{"bufferView":10,"componentType":5126,"count":4152,"max":[0.9898215532302856,1.0,0.9796924591064453],"min":[-0.9898215532302856,-1.0,-1.0],"type":"VEC3"},{"bufferView":11,"componentType":5126,"count":4152,"max":[0.9840614795684815,1.0],"min":[-0.02272731065750122,0.0],"type":"VEC2"},{"bufferView":12,"componentType":5125,"count":792,"max":[791.0],"min":[0.0],"type":"SCALAR"},{"bufferView":13,"componentType":5126,"count":792,"max":[16.763734817504884,16.593103408813478,20.741256713867189],"min":[-16.763734817504884,-16.593107223510743,-0.5991544723510742],"type":"VEC3"},{"bufferView":14,"componentType":5126,"count":792,"max":[1.0,0.9898215532302856,4.5511578150581047e-7],"min":[-1.0,-0.9898215532302856,-0.25649815797805788],"type":"VEC3"},{"bufferView":15,"componentType":5126,"count":792,"max":[0.9840614795684815,1.0],"min":[-0.02272731065750122,0.0],"type":"VEC2"}],"asset":{"generator":"SimLab GLTF","version":"2.0"},"bufferViews":[{"buffer":0,"byteLength":14352,"target":34963},{"buffer":0,"byteLength":43056,"byteOffset":14352,"byteStride":12,"target":34962},{"buffer":0,"byteLength":43056,"byteOffset":57408,"byteStride":12,"target":34962},{"buffer":0,"byteLength":28704,"byteOffset":100464,"byteStride":8,"target":34962},{"buffer":0,"byteLength":16320,"byteOffset":129168,"target":34963},{"buffer":0,"byteLength":48960,"byteOffset":145488,"byteStride":12,"target":34962},{"buffer":0,"byteLength":48960,"byteOffset":194448,"byteStride":12,"target":34962},{"buffer":0,"byteLength":32640,"byteOffset":243408,"byteStride":8,"target":34962},{"buffer":0,"byteLength":16608,"byteOffset":276048,"target":34963},{"buffer":0,"byteLength":49824,"byteOffset":292656,"byteStride":12,"target":34962},{"buffer":0,"byteLength":49824,"byteOffset":342480,"byteStride":12,"target":34962},{"buffer":0,"byteLength":33216,"byteOffset":392304,"byteStride":8,"target":34962},{"buffer":0,"byteLength":3168,"byteOffset":425520,"target":34963},{"buffer":0,"byteLength":9504,"byteOffset":428688,"byteStride":12,"target":34962},{"buffer":0,"byteLength":9504,"byteOffset":438192,"byteStride":12,"target":34962},{"buffer":0,"byteLength":6336,"byteOffset":447696,"byteStride":8,"target":34962}],"buffers":[{"byteLength":454032,"uri":"Coke.bin"}],"images":[{"mimeType":"image/png","uri":"Textures/Coke-Bottle.png"}],"materials":[{"name":"Cap","alphaMode":"MASK","doubleSided":true,"pbrMetallicRoughness":{"baseColorFactor":[0.48235294222831728,0.0117647061124444,0.007843137718737126,1.0],"roughnessFactor":0.9854999780654907}},{"name":"Drinkmt","alphaMode":"MASK","doubleSided":true,"pbrMetallicRoughness":{"baseColorFactor":[0.019607843831181527,0.003921568859368563,0.003921568859368563,1.0],"roughnessFactor":0.9854999780654907}},{"name":"Drinkmt #1","alphaMode":"MASK","doubleSided":true,"pbrMetallicRoughness":{"baseColorFactor":[0.019607843831181527,0.003921568859368563,0.003921568859368563,1.0],"roughnessFactor":0.9854999780654907}},{"name":"Lable","alphaMode":"MASK","doubleSided":true,"pbrMetallicRoughness":{"baseColorFactor":[0.5,0.5,0.5,1.0],"baseColorTexture":{"index":0},"roughnessFactor":0.9854999780654907}}],"meshes":[{"primitives":[{"attributes":{"NORMAL":2,"POSITION":1,"TEXCOORD_0":3},"indices":0,"material":0,"mode":4}]},{"primitives":[{"attributes":{"NORMAL":6,"POSITION":5,"TEXCOORD_0":7},"indices":4,"material":1,"mode":4}]},{"primitives":[{"attributes":{"NORMAL":10,"POSITION":9,"TEXCOORD_0":11},"indices":8,"material":2,"mode":4}]},{"primitives":[{"attributes":{"NORMAL":14,"POSITION":13,"TEXCOORD_0":15},"indices":12,"material":3,"mode":4}]}],"nodes":[{"children":[1,2],"matrix":[1.0,0.0,0.0,0.0,0.0,4.4896593387466768e-11,-1.0,0.0,0.0,1.0,4.4896593387466768e-11,0.0,0.0,0.0,0.0,1.0]},{"name":"Camera-1","rotation":[-0.7071067690849304,0.0,0.0,-0.7071067690849304],"translation":[-0.00011760908819269389,-9.986044883728028,-0.00024058989947661757]},{"name":"Assembly-7","children":[3,7,11],"rotation":[0.0,0.0,0.0,-1.0],"scale":[0.02539999969303608,0.02539999969303608,0.02539999969303608]},{"name":"Cap","children":[4],"rotation":[-1.9679693835626723e-17,-2.3453348038375289e-17,0.7660444974899292,-0.6427875757217407],"scale":[0.981016993522644,0.981016993522644,0.981016993522644],"translation":[0.007321389392018318,-0.0055430298671126369,42.68829345703125]},{"name":"Assembly-2","children":[6],"rotation":[0.0,0.0,0.0,-1.0]},{"mesh":0},{"children":[5]},{"name":"Drinks","children":[8],"rotation":[-3.2323661969257958e-8,5.1195595318631607e-8,0.7660444974899292,-0.6427875757217407],"scale":[0.9357500076293945,0.9357500076293945,1.0492000579833985],"translation":[0.10197435319423676,-0.019895635545253755,-9.429374694824219]},{"name":"Assembly-4","children":[10],"rotation":[0.0,0.0,0.0,-1.0]},{"mesh":1},{"children":[9]},{"name":"Bottle","children":[12],"rotation":[-3.2323637100262206e-8,5.119565926747782e-8,0.7660444974899292,-0.6427875757217407],"scale":[0.981016993522644,0.981016993522644,1.0999560356140137],"translation":[-0.004626939073204994,-0.019891949370503427,-9.429351806640625]},{"name":"Assembly-6","children":[13,16],"rotation":[0.0,0.0,0.0,-1.0]},{"name":"Bottle","children":[15],"rotation":[0.0,0.0,0.0,-1.0]},{"mesh":2},{"children":[14]},{"name":"Bottle","children":[18],"rotation":[0.0,0.0,0.0,-1.0]},{"mesh":3},{"children":[17]}],"samplers":[{"wrapS":10497,"wrapT":10497}],"scene":0,"scenes":[{"nodes":[0]}],"textures":[{"source":0}]}