{"accessors":[{"bufferView":0,"componentType":5125,"count":96768,"max":[96732.0],"min":[0.0],"type":"SCALAR"},{"bufferView":1,"componentType":5126,"count":96768,"max":[45.7366943359375,45.7366943359375,192.11410522460938],"min":[-45.7366943359375,-45.7366943359375,182.57351684570313],"type":"VEC3"},{"bufferView":2,"componentType":5126,"count":96768,"max":[1.0,1.0,1.0],"min":[-1.0,-1.0,-1.0],"type":"VEC3"},{"bufferView":3,"componentType":5126,"count":96768,"max":[0.9026867151260376,0.9005404710769653],"min":[0.10726585984230042,0.10511958599090576],"type":"VEC2"},{"bufferView":4,"componentType":5125,"count":10368,"max":[10333.0],"min":[0.0],"type":"SCALAR"},{"bufferView":5,"componentType":5126,"count":10368,"max":[2.615406036376953,0.6223919987678528,187.8179931640625],"min":[-2.615406036376953,-4.585010051727295,186.7838897705078],"type":"VEC3"},{"bufferView":6,"componentType":5126,"count":10368,"max":[1.0,1.0,1.0],"min":[-1.0,-1.0,-1.0],"type":"VEC3"},{"bufferView":7,"componentType":5126,"count":10368,"max":[0.9999999403953552,1.0],"min":[-0.08364272117614746,0.0],"type":"VEC2"},{"bufferView":8,"componentType":5125,"count":102528,"max":[102493.0],"min":[0.0],"type":"SCALAR"},{"bufferView":9,"componentType":5126,"count":102528,"max":[12.58965015411377,27.459959030151368,187.53897094726563],"min":[-12.58965015411377,-12.6607666015625,185.90023803710938],"type":"VEC3"},{"bufferView":10,"componentType":5126,"count":102528,"max":[0.9999998807907105,1.0,1.0],"min":[-1.0,-1.0,-1.0],"type":"VEC3"},{"bufferView":11,"componentType":5126,"count":102528,"max":[0.9802496433258057,0.8761172890663147],"min":[-0.019750356674194337,0.12388217449188233],"type":"VEC2"},{"bufferView":12,"componentType":5125,"count":43776,"max":[43744.0],"min":[0.0],"type":"SCALAR"},{"bufferView":13,"componentType":5126,"count":43776,"max":[52.57665252685547,52.57665252685547,14.969757080078125],"min":[-52.57665252685547,-52.57665252685547,0.16937300562858582],"type":"VEC3"},{"bufferView":14,"componentType":5126,"count":43776,"max":[0.9997621774673462,0.9997621178627014,-0.021805299445986749],"min":[-0.9997621774673462,-0.9997621774673462,-1.0],"type":"VEC3"},{"bufferView":15,"componentType":5126,"count":43776,"max":[1.018110990524292,1.0777579545974732],"min":[0.0,0.9921020269393921],"type":"VEC2"},{"bufferView":16,"componentType":5125,"count":28800,"max":[28765.0],"min":[0.0],"type":"SCALAR"},{"bufferView":17,"componentType":5126,"count":28800,"max":[52.582176208496097,52.582176208496097,190.12074279785157],"min":[-52.582176208496097,-52.582176208496097,14.969741821289063],"type":"VEC3"},{"bufferView":18,"componentType":5126,"count":28800,"max":[1.0,1.0,0.4947051405906677],"min":[-1.0,-1.0,-0.021810218691825868],"type":"VEC3"},{"bufferView":19,"componentType":5126,"count":28800,"max":[1.0104130506515504,0.9921029806137085],"min":[0.0,-0.021563053131103517],"type":"VEC2"}],"asset":{"generator":"SimLab GLTF","version":"2.0"},"bufferViews":[{"buffer":0,"byteLength":387072,"target":34963},{"buffer":0,"byteLength":1161216,"byteOffset":387072,"byteStride":12,"target":34962},{"buffer":0,"byteLength":1161216,"byteOffset":1548288,"byteStride":12,"target":34962},{"buffer":0,"byteLength":774144,"byteOffset":2709504,"byteStride":8,"target":34962},{"buffer":0,"byteLength":41472,"byteOffset":3483648,"target":34963},{"buffer":0,"byteLength":124416,"byteOffset":3525120,"byteStride":12,"target":34962},{"buffer":0,"byteLength":124416,"byteOffset":3649536,"byteStride":12,"target":34962},{"buffer":0,"byteLength":82944,"byteOffset":3773952,"byteStride":8,"target":34962},{"buffer":0,"byteLength":410112,"byteOffset":3856896,"target":34963},{"buffer":0,"byteLength":1230336,"byteOffset":4267008,"byteStride":12,"target":34962},{"buffer":0,"byteLength":1230336,"byteOffset":5497344,"byteStride":12,"target":34962},{"buffer":0,"byteLength":820224,"byteOffset":6727680,"byteStride":8,"target":34962},{"buffer":0,"byteLength":175104,"byteOffset":7547904,"target":34963},{"buffer":0,"byteLength":525312,"byteOffset":7723008,"byteStride":12,"target":34962},{"buffer":0,"byteLength":525312,"byteOffset":8248320,"byteStride":12,"target":34962},{"buffer":0,"byteLength":350208,"byteOffset":8773632,"byteStride":8,"target":34962},{"buffer":0,"byteLength":115200,"byteOffset":9123840,"target":34963},{"buffer":0,"byteLength":345600,"byteOffset":9239040,"byteStride":12,"target":34962},{"buffer":0,"byteLength":345600,"byteOffset":9584640,"byteStride":12,"target":34962},{"buffer":0,"byteLength":230400,"byteOffset":9930240,"byteStride":8,"target":34962}],"buffers":[{"byteLength":10160640,"uri":"Sprite.bin"}],"images":[{"mimeType":"image/jpeg","uri":"Textures/360_F_222191256_pHmKloI7pz2rjbQ0Ek3UmS82D8zwbiNG.jpg"},{"mimeType":"image/png","uri":"Textures/Sprite-can-map.png"}],"materials":[{"name":"Material #109","alphaMode":"MASK","doubleSided":true,"pbrMetallicRoughness":{"baseColorFactor":[0.5,0.5,0.5,1.0],"baseColorTexture":{"index":0},"roughnessFactor":0.9854999780654907}},{"name":"Material #113","alphaMode":"MASK","doubleSided":true,"pbrMetallicRoughness":{"baseColorFactor":[0.32549020648002627,0.3529411852359772,0.3529411852359772,1.0],"roughnessFactor":0.9854999780654907}},{"name":"Material #112","alphaMode":"MASK","doubleSided":true,"pbrMetallicRoughness":{"baseColorFactor":[0.32549020648002627,0.3529411852359772,0.3529411852359772,1.0],"roughnessFactor":0.9854999780654907}},{"name":"Material #116","alphaMode":"MASK","doubleSided":true,"pbrMetallicRoughness":{"baseColorFactor":[0.32549020648002627,0.3529411852359772,0.3529411852359772,1.0],"roughnessFactor":0.9854999780654907}},{"name":"Material #92","alphaMode":"MASK","doubleSided":true,"pbrMetallicRoughness":{"baseColorFactor":[0.5,0.5,0.5,1.0],"baseColorTexture":{"index":1},"roughnessFactor":0.9854999780654907}}],"meshes":[{"primitives":[{"attributes":{"NORMAL":2,"POSITION":1,"TEXCOORD_0":3},"indices":0,"material":0,"mode":4}]},{"primitives":[{"attributes":{"NORMAL":6,"POSITION":5,"TEXCOORD_0":7},"indices":4,"material":1,"mode":4}]},{"primitives":[{"attributes":{"NORMAL":10,"POSITION":9,"TEXCOORD_0":11},"indices":8,"material":2,"mode":4}]},{"primitives":[{"attributes":{"NORMAL":14,"POSITION":13,"TEXCOORD_0":15},"indices":12,"material":3,"mode":4}]},{"primitives":[{"attributes":{"NORMAL":18,"POSITION":17,"TEXCOORD_0":19},"indices":16,"material":4,"mode":4}]}],"nodes":[{"children":[1,2],"matrix":[1.0,0.0,0.0,0.0,0.0,4.4896593387466768e-11,-1.0,0.0,0.0,1.0,4.4896593387466768e-11,0.0,0.0,0.0,0.0,1.0]},{"name":"Camera-1","rotation":[-0.7071067690849304,0.0,0.0,-0.7071067690849304],"translation":[-2.1195411648022856e-8,-18.982646942138673,-4.109018050257873e-7]},{"name":"Sprite","children":[3,7,11,15],"rotation":[-3.0616171314629199e-17,0.0,0.0,-1.0],"scale":[0.02539999969303608,0.02539999969303608,0.02539999969303608],"translation":[0.0,0.0,-9.689330937590057e-8]},{"name":"Can_Top","children":[4],"rotation":[0.0,0.0,-0.7948489785194397,-0.606807291507721],"scale":[1.0,1.0,0.9733899831771851],"translation":[-8.344650268554688e-7,-2.384185791015625e-7,-93.58341979980469]},{"name":"Assembly-3","children":[6],"rotation":[0.0,0.0,0.0,-1.0]},{"mesh":0},{"children":[5]},{"name":"Can_Cap_Holder","children":[8],"rotation":[-0.017726454883813859,-0.021598532795906068,-0.7945711016654968,-0.6065278053283691],"scale":[0.9999238848686218,0.9999943375587463,0.973469614982605],"translation":[-10.071341514587403,-2.751803398132324,-93.4468994140625]},{"name":"Assembly-5","children":[10],"rotation":[0.0,0.0,0.0,-1.0]},{"mesh":1},{"children":[9]},{"name":"Can_Cap","children":[12],"rotation":[-0.017726454883813859,-0.021598532795906068,-0.7945711016654968,-0.6065278053283691],"scale":[0.9999238848686218,0.9999943375587463,0.973469614982605],"translation":[-10.071341514587403,-2.751803398132324,-93.4468994140625]},{"name":"Assembly-7","children":[14],"rotation":[0.0,0.0,0.0,-1.0]},{"mesh":2},{"children":[13]},{"name":"Can_Body","children":[16],"rotation":[0.0,0.0,-0.7948489785194397,-0.606807291507721],"scale":[1.0,1.0,0.9733899831771851],"translation":[-8.344650268554688e-7,-2.384185791015625e-7,-93.58341979980469]},{"name":"Assembly-9","children":[17,20],"rotation":[0.0,0.0,0.0,-1.0]},{"name":"Can_Body","children":[19],"rotation":[0.0,0.0,0.0,-1.0]},{"mesh":3},{"children":[18]},{"name":"Can_Body","children":[22],"rotation":[0.0,0.0,0.0,-1.0]},{"mesh":4},{"children":[21]}],"samplers":[{"wrapS":10497,"wrapT":10497}],"scene":0,"scenes":[{"nodes":[0]}],"textures":[{"source":0},{"source":1}]}