{"accessors":[{"bufferView":0,"componentType":5125,"count":96,"max":[62.0],"min":[0.0],"type":"SCALAR"},{"bufferView":1,"componentType":5126,"count":64,"max":[16.5,50.0,0.0],"min":[-16.5,-50.0,0.0],"type":"VEC3"},{"bufferView":2,"componentType":5126,"count":64,"max":[0.0,0.0,1.0],"min":[0.0,0.0,1.0],"type":"VEC3"},{"bufferView":3,"componentType":5126,"count":64,"max":[1.0,1.0],"min":[0.0,0.0],"type":"VEC2"},{"bufferView":4,"componentType":5125,"count":4152,"max":[4151.0],"min":[0.0],"type":"SCALAR"},{"bufferView":5,"componentType":5126,"count":4152,"max":[16.922842025756837,16.750591278076173,50.06304931640625],"min":[-16.9228458404541,-16.75059700012207,-36.1119499206543],"type":"VEC3"},{"bufferView":6,"componentType":5126,"count":4152,"max":[0.9898215532302856,1.0,0.9796924591064453],"min":[-0.9898215532302856,-1.0,-1.0],"type":"VEC3"},{"bufferView":7,"componentType":5126,"count":4152,"max":[0.9840614795684815,1.0],"min":[-0.02272731065750122,0.0],"type":"VEC2"},{"bufferView":8,"componentType":5125,"count":792,"max":[791.0],"min":[0.0],"type":"SCALAR"},{"bufferView":9,"componentType":5126,"count":792,"max":[16.763734817504884,16.593103408813478,20.741256713867189],"min":[-16.763734817504884,-16.593107223510743,-0.5991544723510742],"type":"VEC3"},{"bufferView":10,"componentType":5126,"count":792,"max":[1.0,0.9898215532302856,4.5511578150581047e-7],"min":[-1.0,-0.9898215532302856,-0.25649815797805788],"type":"VEC3"},{"bufferView":11,"componentType":5126,"count":792,"max":[0.9840614795684815,1.0],"min":[-0.02272731065750122,0.0],"type":"VEC2"},{"bufferView":12,"componentType":5125,"count":3588,"max":[3587.0],"min":[0.0],"type":"SCALAR"},{"bufferView":13,"componentType":5126,"count":3588,"max":[6.0,6.0,6.568359375],"min":[-6.0,-6.0,-0.3846435546875],"type":"VEC3"},{"bufferView":14,"componentType":5126,"count":3588,"max":[0.9969174861907959,0.9969174265861511,1.0],"min":[-0.9969174265861511,-0.9969174861907959,-1.0],"type":"VEC3"},{"bufferView":15,"componentType":5126,"count":3588,"max":[0.9895846843719482,1.0],"min":[-0.025000035762786866,0.0],"type":"VEC2"},{"bufferView":16,"componentType":5125,"count":4080,"max":[4079.0],"min":[0.0],"type":"SCALAR"},{"bufferView":17,"componentType":5126,"count":4080,"max":[16.922842025756837,16.750591278076173,33.842132568359378],"min":[-16.9228458404541,-16.75059700012207,-36.1119499206543],"type":"VEC3"},{"bufferView":18,"componentType":5126,"count":4080,"max":[1.0,1.0,1.0],"min":[-1.0,-1.0,-1.0],"type":"VEC3"},{"bufferView":19,"componentType":5126,"count":4080,"max":[0.9840614795684815,1.0],"min":[-0.02272731065750122,0.0],"type":"VEC2"},{"bufferView":20,"componentType":5125,"count":3588,"max":[3587.0],"min":[0.0],"type":"SCALAR"},{"bufferView":21,"componentType":5126,"count":3588,"max":[6.0,6.0,6.568359375],"min":[-6.0,-6.0,-0.3846435546875],"type":"VEC3"},{"bufferView":22,"componentType":5126,"count":3588,"max":[0.9969174861907959,0.9969174265861511,1.0],"min":[-0.9969174265861511,-0.9969174861907959,-1.0],"type":"VEC3"},{"bufferView":23,"componentType":5126,"count":3588,"max":[0.9895846843719482,1.0],"min":[-0.025000035762786866,0.0],"type":"VEC2"},{"bufferView":24,"componentType":5125,"count":4080,"max":[4079.0],"min":[0.0],"type":"SCALAR"},{"bufferView":25,"componentType":5126,"count":4080,"max":[16.922842025756837,16.750591278076173,33.842132568359378],"min":[-16.9228458404541,-16.75059700012207,-36.1119499206543],"type":"VEC3"},{"bufferView":26,"componentType":5126,"count":4080,"max":[1.0,1.0,1.0],"min":[-1.0,-1.0,-1.0],"type":"VEC3"},{"bufferView":27,"componentType":5126,"count":4080,"max":[0.9840614795684815,1.0],"min":[-0.02272731065750122,0.0],"type":"VEC2"},{"bufferView":28,"componentType":5125,"count":4152,"max":[4151.0],"min":[0.0],"type":"SCALAR"},{"bufferView":29,"componentType":5126,"count":4152,"max":[16.922842025756837,16.750591278076173,50.06304931640625],"min":[-16.9228458404541,-16.75059700012207,-36.1119499206543],"type":"VEC3"},{"bufferView":30,"componentType":5126,"count":4152,"max":[0.9898215532302856,1.0,0.9796924591064453],"min":[-0.9898215532302856,-1.0,-1.0],"type":"VEC3"},{"bufferView":31,"componentType":5126,"count":4152,"max":[0.9840614795684815,1.0],"min":[-0.02272731065750122,0.0],"type":"VEC2"},{"bufferView":32,"componentType":5125,"count":792,"max":[791.0],"min":[0.0],"type":"SCALAR"},{"bufferView":33,"componentType":5126,"count":792,"max":[16.763734817504884,16.593103408813478,20.741256713867189],"min":[-16.763734817504884,-16.593107223510743,-0.5991544723510742],"type":"VEC3"},{"bufferView":34,"componentType":5126,"count":792,"max":[1.0,0.9898215532302856,4.5511578150581047e-7],"min":[-1.0,-0.9898215532302856,-0.25649815797805788],"type":"VEC3"},{"bufferView":35,"componentType":5126,"count":792,"max":[0.9840614795684815,1.0],"min":[-0.02272731065750122,0.0],"type":"VEC2"},{"bufferView":36,"componentType":5126,"count":101,"max":[3.3333332538604738],"min":[0.0],"type":"SCALAR"},{"bufferView":37,"componentType":5126,"count":101,"max":[70.80723571777344,-117.11648559570313,9.137439727783204],"min":[70.80723571777344,-117.11648559570313,9.137439727783204],"type":"VEC3"},{"bufferView":38,"componentType":5126,"count":101,"max":[-0.674763023853302,-0.18171752989292146,-0.18601083755493165,-0.6907051801681519],"min":[-0.674763023853302,-0.18171752989292146,-0.18601083755493165,-0.6907051801681519],"type":"VEC4"},{"bufferView":39,"componentType":5126,"count":101,"max":[1.0,1.0,1.0],"min":[1.0,1.0,1.0],"type":"VEC3"}],"animations":[{"name":"Take 001","channels":[],"samplers":[{"input":36,"interpolation":"LINEAR","output":39},{"input":36,"interpolation":"LINEAR","output":37},{"input":36,"interpolation":"LINEAR","output":38}]}],"asset":{"generator":"SimLab GLTF","version":"2.0"},"bufferViews":[{"buffer":0,"byteLength":384,"target":34963},{"buffer":0,"byteLength":768,"byteOffset":384,"byteStride":12,"target":34962},{"buffer":0,"byteLength":768,"byteOffset":1152,"byteStride":12,"target":34962},{"buffer":0,"byteLength":512,"byteOffset":1920,"byteStride":8,"target":34962},{"buffer":0,"byteLength":16608,"byteOffset":2432,"target":34963},{"buffer":0,"byteLength":49824,"byteOffset":19040,"byteStride":12,"target":34962},{"buffer":0,"byteLength":49824,"byteOffset":68864,"byteStride":12,"target":34962},{"buffer":0,"byteLength":33216,"byteOffset":118688,"byteStride":8,"target":34962},{"buffer":0,"byteLength":3168,"byteOffset":151904,"target":34963},{"buffer":0,"byteLength":9504,"byteOffset":155072,"byteStride":12,"target":34962},{"buffer":0,"byteLength":9504,"byteOffset":164576,"byteStride":12,"target":34962},{"buffer":0,"byteLength":6336,"byteOffset":174080,"byteStride":8,"target":34962},{"buffer":0,"byteLength":14352,"byteOffset":180416,"target":34963},{"buffer":0,"byteLength":43056,"byteOffset":194768,"byteStride":12,"target":34962},{"buffer":0,"byteLength":43056,"byteOffset":237824,"byteStride":12,"target":34962},{"buffer":0,"byteLength":28704,"byteOffset":280880,"byteStride":8,"target":34962},{"buffer":0,"byteLength":16320,"byteOffset":309584,"target":34963},{"buffer":0,"byteLength":48960,"byteOffset":325904,"byteStride":12,"target":34962},{"buffer":0,"byteLength":48960,"byteOffset":374864,"byteStride":12,"target":34962},{"buffer":0,"byteLength":32640,"byteOffset":423824,"byteStride":8,"target":34962},{"buffer":0,"byteLength":14352,"byteOffset":456464,"target":34963},{"buffer":0,"byteLength":43056,"byteOffset":470816,"byteStride":12,"target":34962},{"buffer":0,"byteLength":43056,"byteOffset":513872,"byteStride":12,"target":34962},{"buffer":0,"byteLength":28704,"byteOffset":556928,"byteStride":8,"target":34962},{"buffer":0,"byteLength":16320,"byteOffset":585632,"target":34963},{"buffer":0,"byteLength":48960,"byteOffset":601952,"byteStride":12,"target":34962},{"buffer":0,"byteLength":48960,"byteOffset":650912,"byteStride":12,"target":34962},{"buffer":0,"byteLength":32640,"byteOffset":699872,"byteStride":8,"target":34962},{"buffer":0,"byteLength":16608,"byteOffset":732512,"target":34963},{"buffer":0,"byteLength":49824,"byteOffset":749120,"byteStride":12,"target":34962},{"buffer":0,"byteLength":49824,"byteOffset":798944,"byteStride":12,"target":34962},{"buffer":0,"byteLength":33216,"byteOffset":848768,"byteStride":8,"target":34962},{"buffer":0,"byteLength":3168,"byteOffset":881984,"target":34963},{"buffer":0,"byteLength":9504,"byteOffset":885152,"byteStride":12,"target":34962},{"buffer":0,"byteLength":9504,"byteOffset":894656,"byteStride":12,"target":34962},{"buffer":0,"byteLength":6336,"byteOffset":904160,"byteStride":8,"target":34962},{"buffer":0,"byteLength":404,"byteOffset":910496,"byteStride":4},{"buffer":0,"byteLength":1212,"byteOffset":910900,"byteStride":12},{"buffer":0,"byteLength":1616,"byteOffset":912112,"byteStride":16},{"buffer":0,"byteLength":1212,"byteOffset":913728,"byteStride":12}],"buffers":[{"byteLength":914940,"uri":"Coke.bin"}],"images":[{"mimeType":"image/png","uri":"Textures/cola-bottle.png"},{"mimeType":"image/png","uri":"Textures/Coke-Bottle.png"}],"materials":[{"name":"01 - Default","alphaMode":"MASK","doubleSided":true,"pbrMetallicRoughness":{"baseColorFactor":[0.5,0.5,0.5,1.0],"baseColorTexture":{"index":0},"roughnessFactor":0.9854999780654907}},{"name":"Bottle","alphaMode":"MASK","doubleSided":true,"pbrMetallicRoughness":{"roughnessFactor":0.9854999780654907}},{"name":"Lable","alphaMode":"MASK","doubleSided":true,"pbrMetallicRoughness":{"baseColorFactor":[0.5,0.5,0.5,1.0],"baseColorTexture":{"index":1},"roughnessFactor":0.9854999780654907}},{"name":"Cap","alphaMode":"MASK","doubleSided":true,"pbrMetallicRoughness":{"baseColorFactor":[0.48235294222831728,0.0117647061124444,0.007843137718737126,1.0],"roughnessFactor":0.9854999780654907}},{"name":"Drinkmt","alphaMode":"MASK","doubleSided":true,"pbrMetallicRoughness":{"baseColorFactor":[0.0,0.0,0.0,1.0],"roughnessFactor":0.9854999780654907}},{"name":"Drinkmt","alphaMode":"MASK","doubleSided":true,"pbrMetallicRoughness":{"baseColorFactor":[0.019607843831181527,0.003921568859368563,0.003921568859368563,1.0],"roughnessFactor":0.9854999780654907}}],"meshes":[{"primitives":[{"attributes":{"NORMAL":2,"POSITION":1,"TEXCOORD_0":3},"indices":0,"material":0,"mode":4}]},{"primitives":[{"attributes":{"NORMAL":6,"POSITION":5,"TEXCOORD_0":7},"indices":4,"material":1,"mode":4}]},{"primitives":[{"attributes":{"NORMAL":10,"POSITION":9,"TEXCOORD_0":11},"indices":8,"material":2,"mode":4}]},{"primitives":[{"attributes":{"NORMAL":14,"POSITION":13,"TEXCOORD_0":15},"indices":12,"material":3,"mode":4}]},{"primitives":[{"attributes":{"NORMAL":18,"POSITION":17,"TEXCOORD_0":19},"indices":16,"material":4,"mode":4}]},{"primitives":[{"attributes":{"NORMAL":22,"POSITION":21,"TEXCOORD_0":23},"indices":20,"material":3,"mode":4}]},{"primitives":[{"attributes":{"NORMAL":26,"POSITION":25,"TEXCOORD_0":27},"indices":24,"material":5,"mode":4}]},{"primitives":[{"attributes":{"NORMAL":30,"POSITION":29,"TEXCOORD_0":31},"indices":28,"material":1,"mode":4}]},{"primitives":[{"attributes":{"NORMAL":34,"POSITION":33,"TEXCOORD_0":35},"indices":32,"material":2,"mode":4}]}],"nodes":[{"children":[1,2],"matrix":[1.0,0.0,0.0,0.0,0.0,4.4896593387466768e-11,-1.0,0.0,0.0,1.0,4.4896593387466768e-11,0.0,0.0,0.0,0.0,1.0]},{"name":"Camera-1","rotation":[-0.7071067690849304,4.90653884941496e-18,0.0,-0.7071067690849304],"translation":[-0.8068510890007019,-10.840835571289063,1.2398145198822022]},{"name":"Assembly-19","children":[3,7,24],"rotation":[0.0,0.0,0.0,-1.0],"scale":[0.02539999969303608,0.02539999969303608,0.02539999969303608]},{"name":"Plane001","children":[4],"rotation":[-0.7071068286895752,0.0,0.0,-0.7071067094802856],"translation":[0.0,-0.000002185569428547751,50.0]},{"name":"Assembly-2","children":[6],"rotation":[0.0,0.0,0.0,-1.0]},{"mesh":0},{"children":[5]},{"name":"Coke-Bottle001","children":[8,16,20],"rotation":[-0.45451948046684267,0.5416752696037293,0.45451948046684267,-0.5416752099990845],"translation":[-37.65119552612305,33.38737869262695,17.471067428588868]},{"name":"Bottle001","children":[9],"rotation":[-5.971492100798059e-8,5.8247175971359869e-9,0.08715572953224182,-0.9961947202682495],"scale":[0.981016993522644,0.981016993522644,1.0999560356140137],"translation":[-7.105427357601002e-15,0.000003814697265625,-9.429349899291993]},{"name":"Assembly-7","children":[10,13],"rotation":[0.0,0.0,0.0,-1.0]},{"name":"Bottle001","children":[12],"rotation":[0.0,0.0,0.0,-1.0]},{"mesh":1},{"children":[11]},{"name":"Bottle001","children":[15],"rotation":[0.0,0.0,0.0,-1.0]},{"mesh":2},{"children":[14]},{"name":"Cap001","children":[17],"rotation":[7.395573702652855e-17,8.453181819921432e-16,0.08715572953224182,-0.9961947202682495],"scale":[0.981016993522644,0.981016993522644,0.981016993522644],"translation":[-0.014341354370117188,0.011949539184570313,42.688297271728519]},{"name":"Assembly-9","children":[19],"rotation":[0.0,0.0,0.0,-1.0]},{"mesh":3},{"children":[18]},{"name":"Drinks001","children":[21],"rotation":[-5.971492811340795e-8,5.8247180412251968e-9,0.08715572953224182,-0.9961947202682495],"scale":[0.9357489943504334,0.9357489943504334,1.0492000579833985],"translation":[0.00000762939453125,0.10660552978515625,-9.429372787475586]},{"name":"Assembly-11","children":[23],"rotation":[0.0,0.0,0.0,-1.0]},{"mesh":4},{"children":[22]},{"name":"Bottle","children":[25,29,33],"rotation":[-3.0616171314629199e-17,0.0,0.0,-1.0],"translation":[-0.028664588928222657,-0.060660362243652347,46.77410125732422]},{"name":"Cap","children":[26],"rotation":[-4.592003661955986e-33,-4.592003661955986e-33,0.9396926164627075,-0.3420201539993286],"scale":[0.981016993522644,0.981016993522644,0.981016993522644],"translation":[0.018377210944890977,0.003308802843093872,42.68829345703125]},{"name":"Assembly-14","children":[28],"rotation":[0.0,0.0,0.0,-1.0]},{"mesh":5},{"children":[27]},{"name":"Drinks","children":[30],"rotation":[-2.871189952458053e-9,6.280068021169427e-8,0.9396926164627075,-0.3420201539993286],"scale":[0.9357500076293945,0.9357500076293945,1.0492000579833985],"translation":[0.08165991306304932,-0.06852768361568451,-9.429374694824219]},{"name":"Assembly-16","children":[32],"rotation":[0.0,0.0,0.0,-1.0]},{"mesh":6},{"children":[31]},{"name":"Bottle","children":[34],"rotation":[-2.8710753774419119e-9,6.280075126596785e-8,0.9396926164627075,-0.3420201539993286],"scale":[0.981016993522644,0.981016993522644,1.0999560356140137],"translation":[9.5367431640625e-7,-0.000002868473529815674,-9.429351806640625]},{"name":"Assembly-18","children":[35,38],"rotation":[0.0,0.0,0.0,-1.0]},{"name":"Bottle","children":[37],"rotation":[0.0,0.0,0.0,-1.0]},{"mesh":7},{"children":[36]},{"name":"Bottle","children":[40],"rotation":[0.0,0.0,0.0,-1.0]},{"mesh":8},{"children":[39]}],"samplers":[{"wrapS":10497,"wrapT":10497}],"scene":0,"scenes":[{"nodes":[0]}],"textures":[{"source":0},{"source":1}]}